<svg xmlns="http://www.w3.org/2000/svg" version="1.1" xmlns:xlink="http://www.w3.org/1999/xlink"
    xmlns:svgjs="http://svgjs.dev/svgjs" width="1000" height="136" viewBox="0 0 1000 136">
    <g transform="matrix(1,0,0,1,-0.6060606060606233,0.14213918620676225)">
        <svg viewBox="0 0 396 54" data-background-color="#ffffff"
            preserveAspectRatio="xMidYMid meet" height="136" width="1000"
            xmlns="http://www.w3.org/2000/svg" xmlns:xlink="http://www.w3.org/1999/xlink">
            <g id="tight-bounds" transform="matrix(1,0,0,1,0.2400000000000091,-0.05643761805268355)">
                <svg viewBox="0 0 395.52 54.11287523610539" height="54.11287523610539"
                    width="395.52">
                    <g>
                        <svg viewBox="0 0 395.52 54.11287523610539" height="54.11287523610539"
                            width="395.52">
                            <g>
                                <svg viewBox="0 0 497.31885565305356 68.04043585284282"
                                    height="54.11287523610539" width="395.52">
                                    <g
                                        transform="matrix(1,0,0,1,101.79885565305358,1.1980105685618767)">
                                        <svg viewBox="0 0 395.52 65.64441471571907"
                                            height="65.64441471571907" width="395.52">
                                            <g id="textblocktransform">
                                                <svg viewBox="0 0 395.52 65.64441471571907"
                                                    height="65.64441471571907" width="395.52"
                                                    id="textblock">
                                                    <g>
                                                        <svg viewBox="0 0 395.52 65.64441471571907"
                                                            height="65.64441471571907"
                                                            width="395.52">
                                                            <g transform="matrix(1,0,0,1,0,0)">
                                                                <svg width="395.52"
                                                                    viewBox="4.2 -38.16 233.57000000000002 38.769999999999996"
                                                                    height="65.64441471571907"
                                                                    data-palette-color="#ea3c12">
                                                                    <path
                                                                        d="M11.28 0L8.96 0Q5.37 0 4.2 0.15L4.2 0.15 4.2-32.62Q4.79-32.47 6.63-32.47 8.47-32.47 10.91-32.57L10.91-32.57 10.91-5.86 15.97-5.86Q18.16-5.86 19.48-6.01L19.48-6.01Q19.31-0.29 19.31-0.07L19.31-0.07 19.31 0.17Q16.92 0 11.28 0L11.28 0ZM39.74 0L39.74-2.22Q36.62 0.37 32.93 0.37L32.93 0.37Q28.98 0.37 26.73-2.29L26.73-2.29Q24.58-4.88 24.58-9.4L24.58-9.4 24.58-19.09Q24.58-23.97 24.37-24.69 24.17-25.42 24.07-25.61L24.07-25.61Q25.19-25.51 26.41-25.51L26.41-25.51 28.44-25.51Q29.25-25.51 30.56-25.59L30.56-25.59 30.56-11.45Q30.56-6.42 33.3-5.62L33.3-5.62Q34.13-5.37 35.1-5.37L35.1-5.37Q37.99-5.37 39.74-7.47L39.74-7.47 39.74-25.51 45.8-25.51 45.8-3.13Q45.8-0.98 45.99 0L45.99 0 39.74 0ZM60.18-17.16L60.18-7.06Q60.18-1.56 60.37 0L60.37 0 54 0 54-25.51 60.18-25.51 60.18-23.32Q63.52-26 67.04-26L67.04-26Q71.19-26 73.07-22.41L73.07-22.41Q74.95-24.34 76.19-24.95L76.19-24.95Q78.27-26 80.35-26 82.44-26 83.91-25.29 85.37-24.58 86.32-23.29L86.32-23.29Q88.25-20.68 88.25-16.11L88.25-16.11 88.25-6.4Q88.25-2.27 88.37-1.44 88.5-0.61 88.7-0.37 88.91-0.12 89.06 0.07L89.06 0.07 89.01 0.17Q87.06 0 86.13 0L86.13 0 84.3 0Q83.39 0 82.08 0.07L82.08 0.07 82.08-13.13Q82.08-18.85 80.32-19.92L80.32-19.92Q79.73-20.26 78.94-20.26 78.14-20.26 77.53-20.08 76.92-19.9 76.39-19.48L76.39-19.48Q75.48-18.82 74.34-16.89L74.34-16.89Q74.36-16.7 74.36-16.5 74.36-16.31 74.36-10.06 74.36-3.81 74.65 0L74.65 0Q72.58 0 71.13 0 69.67 0 68.35 0.07L68.35 0.07 68.35-13.16Q68.35-17.14 67.88-18.33 67.4-19.53 66.87-19.9 66.33-20.26 65.55-20.26L65.55-20.26Q62.32-20.26 60.18-17.16L60.18-17.16ZM100.04-28.83L94.55-32.79Q96.5-35.84 98.63-38.16L98.63-38.16 103.87-34.03Q102.82-32.74 101.92-31.49L101.92-31.49Q101.92-31.49 100.04-28.83L100.04-28.83ZM100.97-25.51L100.97-2.73Q100.97-0.63 101.07 0L101.07 0 94.87 0 94.87-25.51 100.97-25.51ZM114.27-17.07L114.27-3.13Q114.27-0.98 114.47 0L114.47 0 108.34 0 108.34-25.51 114.27-25.51 114.27-23.34Q117.49-26 121.16-26L121.16-26Q125.16-26 127.55-23.28 129.95-20.56 129.95-16.11L129.95-16.11 129.95-6.4Q129.95-2.27 130.07-1.44 130.19-0.61 130.4-0.37 130.61-0.12 130.75 0.07L130.75 0.07 130.7 0.17Q128.73 0 127.82 0L127.82 0 126.11 0Q125.33 0 124.01 0.07L124.01 0.07 124.01-13.23Q124.01-20.39 119.67-20.39L119.67-20.39Q116.45-20.39 114.27-17.07L114.27-17.07ZM153.92-1.51L153.92-1.51Q150.45 0.37 147.64 0.37 144.84 0.37 142.83-0.16 140.83-0.68 139.44-1.71L139.44-1.71Q136.61-3.78 136.61-7.71L136.61-7.71Q136.61-11.23 140.08-13.57L140.08-13.57Q143.84-16.11 150.28-16.11L150.28-16.11 151.26-16.09Q151.55-16.06 151.92-16.05 152.28-16.04 152.58-15.99L152.58-15.99Q152.38-19.9 149.21-20.56L149.21-20.56Q148.16-20.78 146.97-20.78 145.79-20.78 144.65-20.57 143.52-20.36 142.44-20.02L142.44-20.02Q140.08-19.26 139.05-18.29L139.05-18.29 138.98-18.33 138.24-23.73Q142.57-26 147.69-26L147.69-26Q155.65-26 157.87-20.26L157.87-20.26Q158.58-18.43 158.58-16.14L158.58-16.14 158.58-7.3Q158.58-4.47 160.58-3.44L160.58-3.44 156.16 0.61Q154.77-0.12 153.92-1.51ZM152.6-6.49L152.6-11.6Q151.94-11.72 151.23-11.72L151.23-11.72 150.26-11.72Q144.86-11.72 143.4-9.33L143.4-9.33Q142.96-8.62 142.96-7.84 142.96-7.06 143.24-6.46 143.52-5.86 144.18-5.47L144.18-5.47Q145.45-4.74 147.95-4.74 150.45-4.74 152.62-5.93L152.62-5.93Q152.6-6.2 152.6-6.49L152.6-6.49ZM183.85-20.07L183.92-14.04Q182.75-14.16 180.89-14.16L180.89-14.16 173.5-14.16 173.5 0 166.81 0 166.81-32.64Q167.47-32.59 168.32-32.57L168.32-32.57 170.13-32.52Q171.98-32.47 173.98-32.47L173.98-32.47Q179.99-32.47 185.46-32.67L185.46-32.67Q185.19-30.52 185.19-26.93L185.19-26.93Q185.19-26.54 185.24-26.34L185.24-26.34 185.19-26.27Q183.9-26.64 181.58-26.64L181.58-26.64 173.5-26.64 173.5-19.92 180.62-19.92Q183.31-19.92 183.85-20.07L183.85-20.07ZM196.81-36.38L196.81-2.73Q196.81-0.63 196.91 0L196.91 0 190.71 0 190.71-36.38 196.81-36.38ZM208.38-28.83L202.89-32.79Q204.84-35.84 206.96-38.16L206.96-38.16 212.21-34.03Q211.16-32.74 210.26-31.49L210.26-31.49Q210.26-31.49 208.38-28.83L208.38-28.83ZM209.31-25.51L209.31-2.73Q209.31-0.63 209.4 0L209.4 0 203.2 0 203.2-25.51 209.31-25.51ZM212.84 0L221.73-13.01 213.09-25.51 220.73-25.51 225.25-17.72 230.13-25.51 237.23-25.51Q237.21-25.51 236.7-24.8L236.7-24.8 228.74-13.45 237.77 0 230.2 0 225.32-8.28 220.49 0 212.84 0Z"
                                                                        opacity="1"
                                                                        transform="matrix(1,0,0,1,0,0)"
                                                                        fill="#ea3c12"
                                                                        class="wordmark-text-0"
                                                                        data-fill-palette-color="primary"
                                                                        id="text-0"></path>
                                                                </svg>
                                                            </g>
                                                        </svg>
                                                    </g>
                                                </svg>
                                            </g>
                                        </svg>
                                    </g>
                                    <g>
                                        <svg viewBox="0 0 86.30178480462548 68.04043585284282"
                                            height="68.04043585284282" width="86.30178480462548">
                                            <g>
                                                <svg xmlns="http://www.w3.org/2000/svg"
                                                    xmlns:xlink="http://www.w3.org/1999/xlink"
                                                    version="1.1" x="8" y="0"
                                                    viewBox="5 6.447 90.001 87.106"
                                                    enable-background="new 0 0 100 100"
                                                    xml:space="preserve" height="68.04043585284282"
                                                    width="70.30178480462548" class="icon-icon-0"
                                                    data-fill-palette-color="accent" id="icon-0"><path d="M85.691 6.447H14.309C9.176 6.447 5 10.623 5 15.756v68.488c0 5.133 4.176 9.309 9.309 9.309h71.382c5.134 0 9.31-4.176 9.31-9.309V15.756C95 10.623 90.824 6.447 85.691 6.447zM8.184 15.756c0-3.377 2.748-6.125 6.125-6.125h71.382c3.377 0 6.125 2.748 6.125 6.125v14.47 3.23H8.184v-3.23V15.756zM85.691 90.369H14.309c-3.377 0-6.125-2.748-6.125-6.125V36.641h83.632v47.604C91.816 87.621 89.068 90.369 85.691 90.369z" fill="#ea9937" data-fill-palette-color="accent"></path><path d="M17.425 27.38h12.54c1.409 0 2.557-1.146 2.557-2.556v-6.561c0-1.409-1.147-2.557-2.557-2.557h-12.54c-1.409 0-2.557 1.147-2.557 2.557v6.561C14.868 26.233 16.016 27.38 17.425 27.38zM18.053 18.891h11.285v5.306H18.053V18.891z" fill="#ea9937" data-fill-palette-color="accent"></path><path d="M43.729 27.38H56.27c1.41 0 2.558-1.146 2.558-2.556v-6.561c0-1.409-1.147-2.557-2.558-2.557H43.729c-1.409 0-2.557 1.147-2.557 2.557v6.561C41.173 26.233 42.32 27.38 43.729 27.38zM44.357 18.891h11.286v5.306H44.357V18.891z" fill="#ea9937" data-fill-palette-color="accent"></path><path d="M70.035 27.38h12.54c1.409 0 2.557-1.146 2.557-2.556v-6.561c0-1.409-1.147-2.557-2.557-2.557h-12.54c-1.409 0-2.557 1.147-2.557 2.557v6.561C67.479 26.233 68.626 27.38 70.035 27.38zM70.662 18.891h11.285v5.306H70.662V18.891z" fill="#ea9937" data-fill-palette-color="accent"></path><path d="M63.414 58.338L44.042 47.575c-1.614-0.896-3.273-0.973-4.559-0.219-1.286 0.757-2.023 2.248-2.023 4.091v22.186c0 1.844 0.737 3.334 2.023 4.092 0.585 0.344 1.247 0.515 1.948 0.515 0.838 0 1.731-0.245 2.61-0.733l19.371-10.763c1.848-1.025 2.906-2.558 2.906-4.202S65.262 59.363 63.414 58.338zM61.867 63.96L42.495 74.723c-0.581 0.321-1.116 0.422-1.398 0.258-0.279-0.166-0.453-0.682-0.453-1.348V51.447c0-0.666 0.174-1.182 0.453-1.347 0.282-0.166 0.817-0.065 1.398 0.258L61.867 61.12c0.783 0.435 1.27 0.979 1.27 1.42S62.65 63.525 61.867 63.96z" fill="#ea9937" data-fill-palette-color="accent"></path></svg>
                                            </g>
                                        </svg>
                                    </g>
                                </svg>
                            </g>
                        </svg>
                    </g>
                    <defs></defs>
                </svg>
                <rect width="395.52" height="54.11287523610539" fill="none" stroke="none"
                    visibility="hidden"></rect>
            </g>
        </svg>
    </g>
</svg>