<?xml version="1.0" encoding="UTF-8"?>
<svg xmlns="http://www.w3.org/2000/svg" xmlns:xlink="http://www.w3.org/1999/xlink" width="600px"
  height="136px" viewBox="0 0 51 7" version="1.1">
  <defs>
    <clipPath id="clip1">
      <path
        d="M 10.46875 0.125 L 50.867188 0.125 L 50.867188 6.894531 L 10.46875 6.894531 Z M 10.46875 0.125 " />
    </clipPath>
    <clipPath id="clip2">
      <path
        d="M 0.886719 0.0078125 L 8.066406 0.0078125 L 8.066406 7 L 0.886719 7 Z M 0.886719 0.0078125 " />
    </clipPath>
    <clipPath id="clip3">
      <path d="M 1 0.0078125 L 4 0.0078125 L 4 2 L 1 2 Z M 1 0.0078125 " />
    </clipPath>
    <clipPath id="clip4">
      <path d="M 3 0.0078125 L 6 0.0078125 L 6 2 L 3 2 Z M 3 0.0078125 " />
    </clipPath>
    <clipPath id="clip5">
      <path d="M 5 0.0078125 L 8 0.0078125 L 8 2 L 5 2 Z M 5 0.0078125 " />
    </clipPath>
  </defs>
  <g id="surface1">
    <g clip-path="url(#clip1)" clip-rule="nonzero">
      <path
        style=" stroke:none;fill-rule:nonzero;fill:rgb(91.764706%,23.529412%,7.058824%);fill-opacity:1;"
        d="M 11.695312 6.785156 L 11.292969 6.785156 C 10.878906 6.785156 10.605469 6.792969 10.46875 6.8125 L 10.46875 1.089844 C 10.539062 1.109375 10.675781 1.117188 10.890625 1.117188 C 11.101562 1.117188 11.347656 1.109375 11.628906 1.097656 L 11.628906 5.761719 L 12.503906 5.761719 C 12.757812 5.761719 12.960938 5.753906 13.113281 5.734375 C 13.09375 6.402344 13.082031 6.746094 13.082031 6.773438 L 13.082031 6.8125 C 12.808594 6.792969 12.34375 6.785156 11.695312 6.785156 Z M 16.617188 6.785156 L 16.617188 6.398438 C 16.257812 6.699219 15.863281 6.847656 15.4375 6.847656 C 14.984375 6.847656 14.625 6.695312 14.367188 6.386719 C 14.117188 6.082031 13.996094 5.667969 13.996094 5.144531 L 13.996094 3.453125 C 13.996094 2.882812 13.980469 2.558594 13.957031 2.476562 C 13.933594 2.390625 13.917969 2.335938 13.90625 2.3125 C 14.035156 2.324219 14.171875 2.332031 14.3125 2.332031 L 14.660156 2.332031 C 14.753906 2.332031 14.878906 2.328125 15.027344 2.316406 L 15.027344 4.785156 C 15.027344 5.371094 15.1875 5.710938 15.503906 5.804688 C 15.597656 5.832031 15.703125 5.847656 15.8125 5.847656 C 16.148438 5.847656 16.414062 5.726562 16.617188 5.480469 L 16.617188 2.332031 L 17.664062 2.332031 L 17.664062 6.238281 C 17.664062 6.488281 17.675781 6.671875 17.699219 6.785156 Z M 20.152344 3.789062 L 20.152344 5.550781 C 20.152344 6.191406 20.164062 6.601562 20.183594 6.785156 L 19.082031 6.785156 L 19.082031 2.332031 L 20.152344 2.332031 L 20.152344 2.714844 C 20.535156 2.402344 20.933594 2.246094 21.339844 2.246094 C 21.816406 2.246094 22.164062 2.453125 22.382812 2.871094 C 22.597656 2.648438 22.777344 2.5 22.921875 2.429688 C 23.160156 2.308594 23.402344 2.246094 23.640625 2.246094 C 23.882812 2.246094 24.085938 2.289062 24.257812 2.371094 C 24.425781 2.453125 24.5625 2.570312 24.671875 2.71875 C 24.894531 3.023438 25.007812 3.441406 25.007812 3.972656 L 25.007812 5.667969 C 25.007812 6.148438 25.011719 6.4375 25.027344 6.535156 C 25.042969 6.628906 25.0625 6.691406 25.085938 6.71875 C 25.109375 6.75 25.128906 6.773438 25.148438 6.796875 L 25.136719 6.8125 C 24.914062 6.792969 24.746094 6.785156 24.640625 6.785156 L 24.324219 6.785156 C 24.21875 6.785156 24.089844 6.789062 23.941406 6.796875 L 23.941406 4.492188 C 23.941406 3.828125 23.839844 3.433594 23.636719 3.308594 C 23.566406 3.269531 23.488281 3.25 23.394531 3.25 C 23.304688 3.25 23.222656 3.257812 23.152344 3.28125 C 23.082031 3.300781 23.015625 3.335938 22.957031 3.382812 C 22.851562 3.460938 22.730469 3.613281 22.601562 3.835938 C 22.601562 3.859375 22.605469 3.882812 22.605469 3.90625 C 22.605469 3.925781 22.605469 4.300781 22.605469 5.027344 C 22.605469 5.757812 22.621094 6.339844 22.65625 6.785156 C 22.414062 6.785156 22.210938 6.785156 22.046875 6.785156 C 21.878906 6.785156 21.71875 6.789062 21.566406 6.796875 L 21.566406 4.488281 C 21.566406 4.023438 21.539062 3.722656 21.484375 3.585938 C 21.429688 3.445312 21.371094 3.355469 21.308594 3.3125 C 21.246094 3.269531 21.171875 3.25 21.082031 3.25 C 20.707031 3.25 20.398438 3.429688 20.152344 3.789062 Z M 27.046875 1.753906 L 26.097656 1.0625 C 26.320312 0.707031 26.554688 0.394531 26.800781 0.125 L 27.707031 0.84375 C 27.585938 0.996094 27.476562 1.140625 27.371094 1.289062 C 27.371094 1.289062 27.261719 1.441406 27.046875 1.753906 Z M 27.207031 2.332031 L 27.207031 6.308594 C 27.207031 6.550781 27.210938 6.710938 27.222656 6.785156 L 26.152344 6.785156 L 26.152344 2.332031 Z M 29.507812 3.804688 L 29.507812 6.238281 C 29.507812 6.488281 29.519531 6.671875 29.542969 6.785156 L 28.480469 6.785156 L 28.480469 2.332031 L 29.507812 2.332031 L 29.507812 2.710938 C 29.878906 2.402344 30.277344 2.246094 30.699219 2.246094 C 31.160156 2.246094 31.527344 2.40625 31.804688 2.722656 C 32.082031 3.039062 32.21875 3.453125 32.21875 3.972656 L 32.21875 5.667969 C 32.21875 6.148438 32.226562 6.4375 32.238281 6.535156 C 32.253906 6.628906 32.273438 6.691406 32.296875 6.71875 C 32.320312 6.75 32.339844 6.773438 32.359375 6.796875 L 32.347656 6.8125 C 32.121094 6.792969 31.957031 6.785156 31.851562 6.785156 L 31.554688 6.785156 C 31.464844 6.785156 31.34375 6.789062 31.191406 6.796875 L 31.191406 4.476562 C 31.191406 3.640625 30.941406 3.226562 30.441406 3.226562 C 30.070312 3.226562 29.757812 3.417969 29.507812 3.804688 Z M 36.363281 6.519531 C 35.964844 6.738281 35.601562 6.847656 35.277344 6.847656 C 34.957031 6.847656 34.679688 6.820312 34.445312 6.757812 C 34.214844 6.695312 34.019531 6.605469 33.859375 6.484375 C 33.535156 6.246094 33.371094 5.894531 33.371094 5.4375 C 33.371094 5.027344 33.570312 4.6875 33.972656 4.414062 C 34.40625 4.121094 34.992188 3.972656 35.734375 3.972656 L 35.90625 3.976562 C 35.9375 3.980469 35.976562 3.980469 36.019531 3.984375 C 36.0625 3.984375 36.097656 3.988281 36.132812 3.992188 C 36.109375 3.539062 35.914062 3.273438 35.550781 3.195312 C 35.429688 3.171875 35.300781 3.15625 35.164062 3.15625 C 35.027344 3.15625 34.894531 3.167969 34.761719 3.195312 C 34.632812 3.21875 34.503906 3.25 34.378906 3.289062 C 34.105469 3.378906 33.910156 3.480469 33.792969 3.59375 L 33.78125 3.585938 L 33.652344 2.640625 C 34.152344 2.378906 34.695312 2.246094 35.289062 2.246094 C 36.207031 2.246094 36.792969 2.582031 37.046875 3.25 C 37.128906 3.460938 37.171875 3.699219 37.171875 3.96875 L 37.171875 5.511719 C 37.171875 5.839844 37.285156 6.0625 37.515625 6.183594 L 36.753906 6.890625 C 36.59375 6.804688 36.464844 6.683594 36.363281 6.519531 Z M 36.136719 5.652344 L 36.136719 4.761719 C 36.0625 4.746094 35.980469 4.738281 35.898438 4.738281 L 35.730469 4.738281 C 35.109375 4.738281 34.714844 4.878906 34.546875 5.15625 C 34.496094 5.238281 34.46875 5.324219 34.46875 5.417969 C 34.46875 5.507812 34.484375 5.585938 34.519531 5.65625 C 34.550781 5.726562 34.605469 5.785156 34.679688 5.828125 C 34.828125 5.914062 35.042969 5.957031 35.332031 5.957031 C 35.621094 5.957031 35.890625 5.886719 36.140625 5.75 C 36.136719 5.71875 36.136719 5.683594 36.136719 5.652344 Z M 41.542969 3.28125 L 41.554688 4.332031 C 41.417969 4.320312 41.246094 4.3125 41.03125 4.3125 L 39.75 4.3125 L 39.75 6.785156 L 38.59375 6.785156 L 38.59375 1.085938 C 38.671875 1.09375 38.757812 1.097656 38.855469 1.097656 L 39.167969 1.109375 C 39.382812 1.113281 39.605469 1.117188 39.835938 1.117188 C 40.527344 1.117188 41.191406 1.105469 41.820312 1.082031 C 41.789062 1.332031 41.773438 1.667969 41.773438 2.082031 C 41.773438 2.128906 41.777344 2.164062 41.78125 2.1875 L 41.773438 2.199219 C 41.625 2.15625 41.417969 2.132812 41.148438 2.132812 L 39.75 2.132812 L 39.75 3.308594 L 40.984375 3.308594 C 41.292969 3.308594 41.480469 3.296875 41.542969 3.28125 Z M 43.785156 0.433594 L 43.785156 6.308594 C 43.785156 6.550781 43.789062 6.710938 43.800781 6.785156 L 42.726562 6.785156 L 42.726562 0.433594 Z M 45.785156 1.753906 L 44.835938 1.0625 C 45.058594 0.707031 45.292969 0.394531 45.539062 0.125 L 46.445312 0.84375 C 46.324219 0.996094 46.214844 1.140625 46.109375 1.289062 C 46.109375 1.289062 46 1.441406 45.785156 1.753906 Z M 45.945312 2.332031 L 45.945312 6.308594 C 45.945312 6.550781 45.949219 6.710938 45.960938 6.785156 L 44.886719 6.785156 L 44.886719 2.332031 Z M 46.554688 6.785156 L 48.09375 4.511719 L 46.597656 2.332031 L 47.921875 2.332031 L 48.703125 3.691406 L 49.546875 2.332031 L 50.773438 2.332031 C 50.773438 2.332031 50.742188 2.371094 50.683594 2.457031 L 49.304688 4.4375 L 50.867188 6.785156 L 49.558594 6.785156 L 48.714844 5.339844 L 47.878906 6.785156 Z M 46.554688 6.785156 " />
    </g>
    <g clip-path="url(#clip2)" clip-rule="nonzero">
      <path
        style=" stroke:none;fill-rule:nonzero;fill:rgb(91.764706%,60%,21.568627%);fill-opacity:1;"
        d="M 7.324219 0 L 1.628906 0 C 1.21875 0 0.886719 0.335938 0.886719 0.75 L 0.886719 6.265625 C 0.886719 6.679688 1.21875 7.015625 1.628906 7.015625 L 7.324219 7.015625 C 7.734375 7.015625 8.066406 6.679688 8.066406 6.265625 L 8.066406 0.75 C 8.066406 0.335938 7.734375 0 7.324219 0 Z M 1.140625 0.75 C 1.140625 0.476562 1.359375 0.257812 1.628906 0.257812 L 7.324219 0.257812 C 7.59375 0.257812 7.8125 0.476562 7.8125 0.75 L 7.8125 2.175781 L 1.140625 2.175781 Z M 7.324219 6.757812 L 1.628906 6.757812 C 1.359375 6.757812 1.140625 6.535156 1.140625 6.265625 L 1.140625 2.429688 L 7.8125 2.429688 L 7.8125 6.265625 C 7.8125 6.535156 7.59375 6.757812 7.324219 6.757812 Z M 7.324219 6.757812 " />
    </g>
    <g clip-path="url(#clip3)" clip-rule="nonzero">
      <path
        style=" stroke:none;fill-rule:nonzero;fill:rgb(91.764706%,60%,21.568627%);fill-opacity:1;"
        d="M 1.875 1.6875 L 2.878906 1.6875 C 2.988281 1.6875 3.082031 1.59375 3.082031 1.480469 L 3.082031 0.953125 C 3.082031 0.839844 2.988281 0.746094 2.878906 0.746094 L 1.875 0.746094 C 1.765625 0.746094 1.671875 0.839844 1.671875 0.953125 L 1.671875 1.480469 C 1.671875 1.59375 1.765625 1.6875 1.875 1.6875 Z M 1.925781 1.003906 L 2.828125 1.003906 L 2.828125 1.429688 L 1.925781 1.429688 Z M 1.925781 1.003906 " />
    </g>
    <g clip-path="url(#clip4)" clip-rule="nonzero">
      <path
        style=" stroke:none;fill-rule:nonzero;fill:rgb(91.764706%,60%,21.568627%);fill-opacity:1;"
        d="M 3.976562 1.6875 L 4.976562 1.6875 C 5.089844 1.6875 5.179688 1.59375 5.179688 1.480469 L 5.179688 0.953125 C 5.179688 0.839844 5.089844 0.746094 4.976562 0.746094 L 3.976562 0.746094 C 3.863281 0.746094 3.769531 0.839844 3.769531 0.953125 L 3.769531 1.480469 C 3.773438 1.59375 3.863281 1.6875 3.976562 1.6875 Z M 4.027344 1.003906 L 4.925781 1.003906 L 4.925781 1.429688 L 4.027344 1.429688 Z M 4.027344 1.003906 " />
    </g>
    <g clip-path="url(#clip5)" clip-rule="nonzero">
      <path
        style=" stroke:none;fill-rule:nonzero;fill:rgb(91.764706%,60%,21.568627%);fill-opacity:1;"
        d="M 6.074219 1.6875 L 7.074219 1.6875 C 7.1875 1.6875 7.277344 1.59375 7.277344 1.480469 L 7.277344 0.953125 C 7.277344 0.839844 7.1875 0.746094 7.074219 0.746094 L 6.074219 0.746094 C 5.960938 0.746094 5.871094 0.839844 5.871094 0.953125 L 5.871094 1.480469 C 5.871094 1.59375 5.960938 1.6875 6.074219 1.6875 Z M 6.125 1.003906 L 7.023438 1.003906 L 7.023438 1.429688 L 6.125 1.429688 Z M 6.125 1.003906 " />
    </g>
    <path style=" stroke:none;fill-rule:nonzero;fill:rgb(91.764706%,60%,21.568627%);fill-opacity:1;"
      d="M 5.546875 4.179688 L 4 3.3125 C 3.871094 3.238281 3.738281 3.234375 3.636719 3.292969 C 3.535156 3.355469 3.476562 3.476562 3.476562 3.625 L 3.476562 5.410156 C 3.476562 5.558594 3.535156 5.679688 3.636719 5.738281 C 3.683594 5.769531 3.734375 5.78125 3.792969 5.78125 C 3.859375 5.78125 3.929688 5.761719 4 5.722656 L 5.546875 4.855469 C 5.695312 4.773438 5.777344 4.648438 5.777344 4.515625 C 5.777344 4.386719 5.695312 4.261719 5.546875 4.179688 Z M 5.421875 4.632812 L 3.878906 5.5 C 3.832031 5.523438 3.789062 5.53125 3.765625 5.519531 C 3.742188 5.503906 3.730469 5.464844 3.730469 5.410156 L 3.730469 3.625 C 3.730469 3.570312 3.742188 3.527344 3.765625 3.515625 C 3.789062 3.503906 3.832031 3.511719 3.878906 3.535156 L 5.421875 4.402344 C 5.484375 4.4375 5.523438 4.480469 5.523438 4.515625 C 5.523438 4.550781 5.484375 4.597656 5.421875 4.632812 Z M 5.421875 4.632812 " />
  </g>
</svg>